<mxfile host="app.diagrams.net" modified="2024-03-03T17:19:51.910Z" agent="Mozilla/5.0 (Windows NT 10.0; Win64; x64) AppleWebKit/537.36 (KHTML, like Gecko) Chrome/120.0.0.0 YaBrowser/24.1.0.0 Safari/537.36" etag="yrJZMUjnkVNuRJroRDO1" version="24.0.1" type="device">
  <diagram name="Page-1" id="90a13364-a465-7bf4-72fc-28e22215d7a0">
    <mxGraphModel dx="660" dy="377" grid="1" gridSize="10" guides="1" tooltips="1" connect="1" arrows="1" fold="1" page="1" pageScale="1.5" pageWidth="1169" pageHeight="826" background="none" math="0" shadow="0">
      <root>
        <mxCell id="0" style=";html=1;" />
        <mxCell id="1" style=";html=1;" parent="0" />
        <mxCell id="hw5v_ZdDQLp4gJ9pz5Yd-14" style="edgeStyle=orthogonalEdgeStyle;rounded=0;orthogonalLoop=1;jettySize=auto;html=1;entryX=0.283;entryY=-0.043;entryDx=0;entryDy=0;entryPerimeter=0;" edge="1" parent="1" source="hw5v_ZdDQLp4gJ9pz5Yd-1" target="hw5v_ZdDQLp4gJ9pz5Yd-13">
          <mxGeometry relative="1" as="geometry">
            <Array as="points">
              <mxPoint x="571" y="560" />
              <mxPoint x="571" y="560" />
            </Array>
          </mxGeometry>
        </mxCell>
        <mxCell id="hw5v_ZdDQLp4gJ9pz5Yd-1" value="&lt;table border=&quot;1&quot; width=&quot;100%&quot; height=&quot;100%&quot; cellpadding=&quot;4&quot; style=&quot;width:100%;height:100%;border-collapse:collapse;&quot;&gt;&lt;tbody&gt;&lt;tr&gt;&lt;th align=&quot;center&quot;&gt;&lt;b&gt;1.1&lt;/b&gt;&lt;/th&gt;&lt;/tr&gt;&lt;tr&gt;&lt;td align=&quot;center&quot;&gt;Запись на услугу&lt;/td&gt;&lt;/tr&gt;&lt;tr&gt;&lt;td align=&quot;center&quot;&gt;Сайт&lt;/td&gt;&lt;/tr&gt;&lt;/tbody&gt;&lt;/table&gt;" style="text;html=1;whiteSpace=wrap;strokeColor=none;fillColor=none;overflow=fill;" vertex="1" parent="1">
          <mxGeometry x="520" y="360" width="180" height="180" as="geometry" />
        </mxCell>
        <mxCell id="hw5v_ZdDQLp4gJ9pz5Yd-2" value="Клиент" style="rounded=0;whiteSpace=wrap;html=1;" vertex="1" parent="1">
          <mxGeometry x="280" y="410" width="120" height="60" as="geometry" />
        </mxCell>
        <mxCell id="hw5v_ZdDQLp4gJ9pz5Yd-10" style="edgeStyle=orthogonalEdgeStyle;rounded=0;orthogonalLoop=1;jettySize=auto;html=1;" edge="1" parent="1" source="hw5v_ZdDQLp4gJ9pz5Yd-3">
          <mxGeometry relative="1" as="geometry">
            <mxPoint x="700" y="470" as="targetPoint" />
            <Array as="points">
              <mxPoint x="700" y="470" />
            </Array>
          </mxGeometry>
        </mxCell>
        <mxCell id="hw5v_ZdDQLp4gJ9pz5Yd-3" value="Работник барбершопа" style="rounded=0;whiteSpace=wrap;html=1;" vertex="1" parent="1">
          <mxGeometry x="840" y="420" width="120" height="60" as="geometry" />
        </mxCell>
        <mxCell id="hw5v_ZdDQLp4gJ9pz5Yd-4" style="edgeStyle=orthogonalEdgeStyle;rounded=0;orthogonalLoop=1;jettySize=auto;html=1;exitX=1;exitY=0.25;exitDx=0;exitDy=0;" edge="1" parent="1" source="hw5v_ZdDQLp4gJ9pz5Yd-2">
          <mxGeometry relative="1" as="geometry">
            <mxPoint x="530" y="425" as="targetPoint" />
            <Array as="points">
              <mxPoint x="520" y="425" />
            </Array>
          </mxGeometry>
        </mxCell>
        <mxCell id="hw5v_ZdDQLp4gJ9pz5Yd-5" value="Запрос на дату/время" style="text;html=1;align=center;verticalAlign=middle;whiteSpace=wrap;rounded=0;" vertex="1" parent="1">
          <mxGeometry x="420" y="390" width="80" height="30" as="geometry" />
        </mxCell>
        <mxCell id="hw5v_ZdDQLp4gJ9pz5Yd-7" style="edgeStyle=orthogonalEdgeStyle;rounded=0;orthogonalLoop=1;jettySize=auto;html=1;entryX=1.025;entryY=0.65;entryDx=0;entryDy=0;entryPerimeter=0;exitX=0;exitY=0.5;exitDx=0;exitDy=0;" edge="1" parent="1" source="hw5v_ZdDQLp4gJ9pz5Yd-1">
          <mxGeometry relative="1" as="geometry">
            <mxPoint x="517" y="450.5" as="sourcePoint" />
            <mxPoint x="400" y="449.5" as="targetPoint" />
          </mxGeometry>
        </mxCell>
        <mxCell id="hw5v_ZdDQLp4gJ9pz5Yd-8" value="Подтверждение либо отказ (предложение другого времени)" style="text;html=1;align=center;verticalAlign=middle;whiteSpace=wrap;rounded=0;" vertex="1" parent="1">
          <mxGeometry x="400" y="460" width="120" height="30" as="geometry" />
        </mxCell>
        <mxCell id="hw5v_ZdDQLp4gJ9pz5Yd-9" style="edgeStyle=orthogonalEdgeStyle;rounded=0;orthogonalLoop=1;jettySize=auto;html=1;entryX=0;entryY=0.114;entryDx=0;entryDy=0;entryPerimeter=0;" edge="1" parent="1" source="hw5v_ZdDQLp4gJ9pz5Yd-1" target="hw5v_ZdDQLp4gJ9pz5Yd-3">
          <mxGeometry relative="1" as="geometry">
            <Array as="points">
              <mxPoint x="740" y="427" />
              <mxPoint x="740" y="427" />
            </Array>
          </mxGeometry>
        </mxCell>
        <mxCell id="hw5v_ZdDQLp4gJ9pz5Yd-11" value="Сообщение о новой записи" style="text;html=1;align=center;verticalAlign=middle;whiteSpace=wrap;rounded=0;" vertex="1" parent="1">
          <mxGeometry x="710" y="390" width="120" height="30" as="geometry" />
        </mxCell>
        <mxCell id="hw5v_ZdDQLp4gJ9pz5Yd-12" value="Подтверждение или изменение записи" style="text;html=1;align=center;verticalAlign=middle;whiteSpace=wrap;rounded=0;" vertex="1" parent="1">
          <mxGeometry x="740" y="480" width="60" height="30" as="geometry" />
        </mxCell>
        <mxCell id="hw5v_ZdDQLp4gJ9pz5Yd-15" style="edgeStyle=orthogonalEdgeStyle;rounded=0;orthogonalLoop=1;jettySize=auto;html=1;" edge="1" parent="1" source="hw5v_ZdDQLp4gJ9pz5Yd-13">
          <mxGeometry relative="1" as="geometry">
            <mxPoint x="650" y="540" as="targetPoint" />
            <Array as="points">
              <mxPoint x="650" y="540" />
            </Array>
          </mxGeometry>
        </mxCell>
        <mxCell id="hw5v_ZdDQLp4gJ9pz5Yd-13" value="База данных записей и клиентов" style="rounded=0;whiteSpace=wrap;html=1;" vertex="1" parent="1">
          <mxGeometry x="520" y="610" width="180" height="30" as="geometry" />
        </mxCell>
        <mxCell id="hw5v_ZdDQLp4gJ9pz5Yd-16" value="Добавление информации о записи для этого клиента (если клиент новый, он создается)" style="text;html=1;align=center;verticalAlign=middle;whiteSpace=wrap;rounded=0;" vertex="1" parent="1">
          <mxGeometry x="400" y="560" width="170" height="30" as="geometry" />
        </mxCell>
        <mxCell id="hw5v_ZdDQLp4gJ9pz5Yd-17" value="Результат транзакции (создан ли новый клиент или модифицирован старый)" style="text;html=1;align=center;verticalAlign=middle;whiteSpace=wrap;rounded=0;" vertex="1" parent="1">
          <mxGeometry x="650" y="560" width="150" height="30" as="geometry" />
        </mxCell>
      </root>
    </mxGraphModel>
  </diagram>
</mxfile>
